<svg width="31" height="30" viewBox="0 0 31 30" fill="none" xmlns="http://www.w3.org/2000/svg">
<path d="M3.06427 18.0005H0.611799C0.274255 18.0005 0 18.2747 0 18.6123V29.0867C0 29.4242 0.274255 29.6985 0.611799 29.6985H3.05899C3.39654 29.6985 3.67079 29.4242 3.67079 29.0867V18.6123C3.67607 18.2747 3.40181 18.0005 3.06427 18.0005Z" fill="#fff"/>
<path d="M17.3729 11.3813C17.5575 11.5659 17.8898 11.5659 18.0797 11.3813L21.4709 7.99005C21.5659 7.89512 21.6186 7.76854 21.6186 7.63669C21.6186 7.50483 21.5659 7.37825 21.4709 7.28332C21.2758 7.08818 20.9594 7.08818 20.7642 7.28332L18.0797 9.96785C17.8845 10.163 17.5681 10.163 17.3729 9.96785L16.7401 9.33496C16.6398 9.24002 16.5133 9.19255 16.3867 9.19255C16.2601 9.19255 16.1335 9.24002 16.0333 9.34023C15.8382 9.53537 15.8382 9.85182 16.0333 10.047L17.3729 11.3813Z" fill="#fff"/>
<path d="M18.7494 14.4878C21.5922 14.4878 23.9075 12.1725 23.9075 9.32973C23.9075 6.48697 21.5922 4.17163 18.7494 4.17163C15.9067 4.17163 13.5913 6.48697 13.5913 9.32973C13.5966 12.1778 15.9067 14.4878 18.7494 14.4878ZM15.3318 8.63354C15.9119 8.05339 16.8613 8.05339 17.4467 8.63354L17.7315 8.91834L20.0627 6.58718C20.6428 6.00703 21.5922 6.00703 22.1776 6.58718C22.4571 6.86671 22.6153 7.24645 22.6153 7.64201C22.6153 8.03756 22.4571 8.4173 22.1776 8.69683L18.7863 12.0881C18.5068 12.3729 18.1271 12.5258 17.7315 12.5258C17.3307 12.5258 16.9562 12.3729 16.6767 12.0881L15.337 10.7485C14.7463 10.163 14.7463 9.2137 15.3318 8.63354Z" fill="#fff"/>
<path d="M10.8332 11.9088C11.1285 12.8213 10.2952 14.3191 10.8437 15.0786C11.4028 15.8433 13.0905 15.5111 13.8552 16.0701C14.6147 16.6239 14.8151 18.3327 15.7275 18.6281C16.6083 18.9129 17.7739 17.6576 18.7496 17.6576C19.7253 17.6576 20.8909 18.9129 21.7717 18.6281C22.6841 18.3327 22.8845 16.6186 23.644 16.0701C24.4088 15.5111 26.0965 15.8486 26.6555 15.0786C27.2093 14.3191 26.3707 12.8213 26.6714 11.9088C26.9562 11.0281 28.5226 10.3108 28.5226 9.33506C28.5226 8.35935 26.9562 7.64206 26.6714 6.76128C26.376 5.84886 27.2093 4.35101 26.6608 3.59153C26.1017 2.82679 24.414 3.15906 23.6493 2.6C22.8898 2.04622 22.6894 0.337399 21.777 0.0420482C20.8962 -0.242755 19.7306 1.01249 18.7549 1.01249C17.7792 1.01249 16.6136 -0.242755 15.7328 0.0420482C14.8204 0.337399 14.62 2.05149 13.8605 2.6C13.0958 3.15906 11.408 2.82151 10.849 3.59153C10.2952 4.35101 11.1338 5.84886 10.8332 6.76128C10.5483 7.64206 8.98193 8.35935 8.98193 9.33506C8.98193 10.3108 10.5483 11.0281 10.8332 11.9088ZM18.7496 3.18015C22.1409 3.18015 24.8992 5.93852 24.8992 9.33506C24.8992 12.7316 22.1409 15.4847 18.7496 15.4847C15.3584 15.4847 12.6 12.7263 12.6 9.33506C12.6 5.9438 15.3584 3.18015 18.7496 3.18015Z" fill="#fff"/>
<path d="M29.572 22.6734C29.1764 22.4625 28.7281 22.4308 28.322 22.5732L20.2737 25.4582C19.8887 25.6691 19.4404 25.7904 18.971 25.7904H14.372C14.0977 25.7904 13.8762 25.5689 13.8762 25.2947C13.8762 25.0204 14.0977 24.7989 14.372 24.7989H18.971C19.2611 24.7989 19.5406 24.7251 19.7779 24.5985C19.8043 24.5827 19.8307 24.5668 19.8623 24.551C20.2315 24.3295 20.4952 23.9709 20.5638 23.5489C20.6376 23.0954 20.5163 22.6629 20.2262 22.3201C19.9414 21.9825 19.5248 21.7927 19.0818 21.7927H15.4532C14.4089 21.7927 13.3699 21.4182 12.5208 20.7378C11.1442 19.6408 8.35947 18.1957 4.67285 20.1999V27.6575C5.7646 27.7102 7.65801 27.9687 10.1843 28.9549C12.9058 30.0203 15.8065 30.2682 18.5649 29.6669C21.3918 29.0499 25.6111 27.7999 29.6617 25.321C29.9992 25.1154 30.2471 24.762 30.342 24.3612C30.495 23.6966 30.1785 23.0004 29.572 22.6734Z" fill="#fff"/>
</svg>
