<svg width="28" height="28" viewBox="0 0 28 28" fill="none" xmlns="http://www.w3.org/2000/svg">
<g clip-path="url(#clip0_19_3446)">
<path d="M26.5639 11.0672C26.2447 9.69223 25.7057 8.39187 24.9575 7.19115L25.4716 5.67269L22.3274 2.52847L20.8089 3.0426C19.6082 2.29431 18.3078 1.7553 16.9329 1.43614L16.2233 0H11.7766L11.0671 1.43609C9.69218 1.75525 8.39181 2.2942 7.19109 3.04255L5.67263 2.52842L2.52836 5.67263L3.04255 7.19109C2.29425 8.39181 1.7553 9.69218 1.43609 11.0671L0 11.7767V16.2233L1.43609 16.9328C1.75525 18.3078 2.2942 19.6081 3.04255 20.8089L2.52836 22.3273L5.67263 25.4715L7.19109 24.9574C8.39181 25.7057 9.69218 26.2447 11.0671 26.5639L11.7766 27.9999H16.2233L16.9328 26.5639C18.3078 26.2447 19.6081 25.7057 20.8089 24.9574L22.3274 25.4715L25.4716 22.3273L24.9574 20.8089C25.7057 19.6081 26.2447 18.3078 26.5639 16.9328L27.9999 16.2233V11.7767L26.5639 11.0672ZM14 23.6079C8.70217 23.6079 4.39205 19.2978 4.39205 14C4.39205 8.70217 8.70212 4.39205 14 4.39205C19.2979 4.39205 23.6079 8.70217 23.6079 14C23.6079 19.2978 19.2978 23.6079 14 23.6079Z" fill="white"/>
<path d="M20.3192 14.8199V13.1801H21.9263C21.5422 9.43976 18.5602 6.45777 14.8199 6.07373V7.68085H13.1801V6.07373C9.43976 6.45777 6.45777 9.43976 6.07373 13.1801H7.68085V14.8199H6.07373C6.45777 18.5602 9.43976 21.5422 13.1801 21.9263V20.3192H14.8199V21.9263C18.5602 21.5422 21.5422 18.5602 21.9263 14.8199H20.3192ZM14.8199 14.8199H10.8838V13.1801H13.1801V9.32076H14.8199V14.8199Z" fill="white"/>
</g>
<defs>
<clipPath id="clip0_19_3446">
<rect width="28" height="28" fill="white"/>
</clipPath>
</defs>
</svg>
