<svg width="28" height="28" viewBox="0 0 28 28" fill="none" xmlns="http://www.w3.org/2000/svg">
<path d="M17.0012 9.9995C19.7625 9.9995 22.001 7.76104 22.001 4.99975C22.001 2.23846 19.7625 0 17.0012 0C14.2399 0 12.0015 2.23846 12.0015 4.99975C12.0015 7.76104 14.2399 9.9995 17.0012 9.9995Z" fill="white"/>
<path d="M7.7008 13.3101L2.00079 15.1101V22.3001C1.97262 23.1125 2.1443 23.9194 2.50076 24.6501C3.75079 27.1301 6.90079 27.84 7.7008 27.9901C8.49084 27.84 11.6408 27.1301 12.8908 24.6501C13.2441 23.929 13.4158 23.1326 13.3908 22.33V15.1101L7.7008 13.3101ZM11.8913 18.8701L7.99077 22.7601C7.8995 22.8549 7.79002 22.9304 7.66888 22.982C7.54774 23.0335 7.41744 23.0601 7.28579 23.0601C7.15413 23.0601 7.02383 23.0335 6.9027 22.982C6.78156 22.9304 6.67207 22.8549 6.5808 22.7601L4.51081 20.7001C4.41809 20.6076 4.34453 20.4977 4.29433 20.3768C4.24414 20.2558 4.2183 20.1261 4.2183 19.9951C4.2183 19.8641 4.24414 19.7344 4.29433 19.6135C4.34453 19.4925 4.41809 19.3826 4.51081 19.2901C4.69961 19.1027 4.9548 18.9976 5.22079 18.9976C5.48677 18.9976 5.74197 19.1027 5.93076 19.2901L7.29077 20.6401L10.4708 17.46C10.6596 17.2727 10.9148 17.1676 11.1808 17.1676C11.4468 17.1676 11.702 17.2727 11.8908 17.46C11.9836 17.5525 12.0572 17.6624 12.1074 17.7833C12.1576 17.9043 12.1835 18.034 12.1835 18.1649C12.1836 18.2959 12.1578 18.4256 12.1076 18.5466C12.0575 18.6676 11.984 18.7775 11.8913 18.8701Z" fill="white"/>
<path d="M26.0009 28H23.0009V19C23.0021 18.8679 22.9771 18.7368 22.9274 18.6144C22.8777 18.492 22.8043 18.3807 22.7113 18.2868C22.6183 18.193 22.5077 18.1185 22.3857 18.0676C22.2638 18.0168 22.133 17.9906 22.0009 17.9906C21.8688 17.9906 21.7379 18.0168 21.616 18.0676C21.4941 18.1185 21.3834 18.193 21.2904 18.2868C21.1975 18.3807 21.124 18.492 21.0743 18.6144C21.0246 18.7368 20.9996 18.8679 21.0009 19V28H13.0008V27.685C13.6933 27.0867 14.2625 26.3593 14.6766 25.5433V25.5423C15.1795 24.5387 15.4251 23.4258 15.3913 22.3037V14.375C15.3916 14.1625 15.324 13.9555 15.1984 13.784C15.0728 13.6126 14.8958 13.4857 14.6931 13.4219L12.7178 12.7974C13.8221 12.2739 15.0286 12.0016 16.2507 12H17.7507C19.9379 12.0026 22.0348 12.8727 23.5814 14.4193C25.128 15.9659 25.9981 18.0628 26.0007 20.25L26.0009 28Z" fill="white"/>
</svg>
