<svg width="30" height="28" viewBox="0 0 30 28" fill="none" xmlns="http://www.w3.org/2000/svg">
<path d="M11.2313 4.70309L11.4878 4.38397C12.9533 2.55201 14.1835 0.953127 14.8272 0.106852C14.9184 -0.0123871 15.0889 -0.0352866 15.2084 0.0556615C17.8659 2.12506 20.286 5.91315 19.779 9.96699C19.6309 11.1826 19.3151 12.3718 18.8407 13.5008C17.8876 13.8804 16.99 14.3869 16.1723 15.0065C14.9546 15.9092 13.9468 17.0648 13.218 18.3938C13.21 18.4088 13.2029 18.4243 13.1967 18.4401C13.0358 18.7594 12.8986 19.0901 12.7861 19.4296C12.6772 19.2662 12.5628 19.1083 12.443 18.9536C12.0733 16.3941 11.6735 10.1641 15.32 4.8986C15.4826 4.65151 15.4182 4.31985 15.175 4.15151C14.9319 3.98318 14.5988 4.03971 14.4247 4.27887C11.1273 9.03957 10.9482 14.5093 11.2068 17.6864C10.4835 17.1034 9.68369 16.6222 8.82975 16.2563C6.06166 11.1199 9.1663 7.2637 11.2313 4.70309ZM2.32095 22.3453C1.65834 20.4201 0.891712 18.5324 0.0244606 16.6904C-0.0105332 16.6135 -0.00785801 16.5247 0.0317019 16.45C0.0712619 16.3754 0.143225 16.3234 0.226499 16.3091C4.27381 15.6791 10.2821 16.7301 12.2072 20.5841C12.6451 21.5205 12.9707 22.5054 13.1771 23.5183C11.5526 21.2392 8.7497 18.9003 3.00821 17.67C2.71406 17.6069 2.42441 17.7941 2.36125 18.0883C2.29809 18.3824 2.48534 18.6721 2.77948 18.7352C10.4314 20.375 12.4321 24.1298 13.2849 25.7783L13.2888 25.7859V25.7897C13.2939 25.8025 13.2997 25.8151 13.3062 25.8273C13.4438 26.0895 13.5666 26.3594 13.6738 26.6354C13.7124 27.0041 13.7386 27.3162 13.756 27.5471C5.66575 29.5114 3.06756 24.5856 2.32095 22.3453ZM27.4342 20.6908C26.0052 24.5029 20.5725 28.8393 14.849 27.5264C14.8103 26.9698 14.7161 25.9084 14.513 24.6771C14.9573 22.9846 16.3918 18.2511 27.5317 15.4634C27.7244 15.42 27.8785 15.2757 27.9344 15.0862C27.9903 14.8967 27.9392 14.6918 27.8009 14.5508C27.6625 14.4097 27.4586 14.3547 27.2681 14.4069C20.2659 16.1572 15.9365 18.8779 14.1013 22.6883C13.9546 22.0991 13.7727 21.5192 13.5567 20.9517C13.6393 20.2345 13.8539 19.5388 14.1895 18.8997C14.1971 18.8856 14.2038 18.8711 14.2096 18.8561C14.8667 17.6838 15.7653 16.6643 16.8459 15.8653C17.6441 15.2617 18.5243 14.775 19.4599 14.42H19.4643C23.1211 12.9845 27.652 13.0586 29.6185 13.1762C29.7012 13.1807 29.7772 13.2231 29.8244 13.2911C29.8717 13.3591 29.8849 13.4451 29.8603 13.5242C29.4328 14.9227 28.5604 17.6891 27.4342 20.6908Z" fill="white"/>
</svg>
