<svg width="58" height="96" viewBox="0 0 58 96" fill="none" xmlns="http://www.w3.org/2000/svg">
<circle cx="57" cy="95" r="1" transform="rotate(180 57 95)" fill="white"/>
<circle cx="57" cy="90" r="1" transform="rotate(180 57 90)" fill="white"/>
<circle cx="57" cy="85" r="1" transform="rotate(180 57 85)" fill="white"/>
<circle cx="57" cy="80" r="1" transform="rotate(180 57 80)" fill="white"/>
<circle cx="57" cy="75" r="1" transform="rotate(180 57 75)" fill="white"/>
<circle cx="57" cy="70" r="1" transform="rotate(180 57 70)" fill="white"/>
<circle cx="57" cy="65" r="1" transform="rotate(180 57 65)" fill="white"/>
<circle cx="57" cy="60" r="1" transform="rotate(180 57 60)" fill="white"/>
<circle cx="57" cy="55" r="1" transform="rotate(180 57 55)" fill="white"/>
<circle cx="57" cy="50" r="1" transform="rotate(180 57 50)" fill="white"/>
<circle cx="53" cy="95" r="1" transform="rotate(180 53 95)" fill="white"/>
<circle cx="53" cy="90" r="1" transform="rotate(180 53 90)" fill="white"/>
<circle cx="53" cy="85" r="1" transform="rotate(180 53 85)" fill="white"/>
<circle cx="53" cy="80" r="1" transform="rotate(180 53 80)" fill="white"/>
<circle cx="53" cy="75" r="1" transform="rotate(180 53 75)" fill="white"/>
<circle cx="53" cy="70" r="1" transform="rotate(180 53 70)" fill="white"/>
<circle cx="53" cy="65" r="1" transform="rotate(180 53 65)" fill="white"/>
<circle cx="53" cy="60" r="1" transform="rotate(180 53 60)" fill="white"/>
<circle cx="53" cy="55" r="1" transform="rotate(180 53 55)" fill="white"/>
<circle cx="53" cy="50" r="1" transform="rotate(180 53 50)" fill="white"/>
<circle cx="49" cy="95" r="1" transform="rotate(180 49 95)" fill="white"/>
<circle cx="49" cy="90" r="1" transform="rotate(180 49 90)" fill="white"/>
<circle cx="49" cy="85" r="1" transform="rotate(180 49 85)" fill="white"/>
<circle cx="49" cy="80" r="1" transform="rotate(180 49 80)" fill="white"/>
<circle cx="49" cy="75" r="1" transform="rotate(180 49 75)" fill="white"/>
<circle cx="49" cy="70" r="1" transform="rotate(180 49 70)" fill="white"/>
<circle cx="49" cy="65" r="1" transform="rotate(180 49 65)" fill="white"/>
<circle cx="49" cy="60" r="1" transform="rotate(180 49 60)" fill="white"/>
<circle cx="49" cy="55" r="1" transform="rotate(180 49 55)" fill="white"/>
<circle cx="49" cy="50" r="1" transform="rotate(180 49 50)" fill="white"/>
<circle cx="45" cy="95" r="1" transform="rotate(180 45 95)" fill="white"/>
<circle cx="45" cy="90" r="1" transform="rotate(180 45 90)" fill="white"/>
<circle cx="45" cy="85" r="1" transform="rotate(180 45 85)" fill="white"/>
<circle cx="45" cy="80" r="1" transform="rotate(180 45 80)" fill="white"/>
<circle cx="45" cy="75" r="1" transform="rotate(180 45 75)" fill="white"/>
<circle cx="45" cy="70" r="1" transform="rotate(180 45 70)" fill="white"/>
<circle cx="45" cy="65" r="1" transform="rotate(180 45 65)" fill="white"/>
<circle cx="45" cy="60" r="1" transform="rotate(180 45 60)" fill="white"/>
<circle cx="45" cy="55" r="1" transform="rotate(180 45 55)" fill="white"/>
<circle cx="45" cy="50" r="1" transform="rotate(180 45 50)" fill="white"/>
<circle cx="41" cy="95" r="1" transform="rotate(180 41 95)" fill="white"/>
<circle cx="41" cy="90" r="1" transform="rotate(180 41 90)" fill="white"/>
<circle cx="41" cy="85" r="1" transform="rotate(180 41 85)" fill="white"/>
<circle cx="41" cy="80" r="1" transform="rotate(180 41 80)" fill="white"/>
<circle cx="41" cy="75" r="1" transform="rotate(180 41 75)" fill="white"/>
<circle cx="41" cy="70" r="1" transform="rotate(180 41 70)" fill="white"/>
<circle cx="41" cy="65" r="1" transform="rotate(180 41 65)" fill="white"/>
<circle cx="41" cy="60" r="1" transform="rotate(180 41 60)" fill="white"/>
<circle cx="41" cy="55" r="1" transform="rotate(180 41 55)" fill="white"/>
<circle cx="41" cy="50" r="1" transform="rotate(180 41 50)" fill="white"/>
<circle cx="37" cy="95" r="1" transform="rotate(180 37 95)" fill="white"/>
<circle cx="37" cy="90" r="1" transform="rotate(180 37 90)" fill="white"/>
<circle cx="37" cy="85" r="1" transform="rotate(180 37 85)" fill="white"/>
<circle cx="37" cy="80" r="1" transform="rotate(180 37 80)" fill="white"/>
<circle cx="37" cy="75" r="1" transform="rotate(180 37 75)" fill="white"/>
<circle cx="37" cy="70" r="1" transform="rotate(180 37 70)" fill="white"/>
<circle cx="37" cy="65" r="1" transform="rotate(180 37 65)" fill="white"/>
<circle cx="37" cy="60" r="1" transform="rotate(180 37 60)" fill="white"/>
<circle cx="37" cy="55" r="1" transform="rotate(180 37 55)" fill="white"/>
<circle cx="37" cy="50" r="1" transform="rotate(180 37 50)" fill="white"/>
<circle cx="33" cy="95" r="1" transform="rotate(180 33 95)" fill="white"/>
<circle cx="33" cy="90" r="1" transform="rotate(180 33 90)" fill="white"/>
<circle cx="33" cy="85" r="1" transform="rotate(180 33 85)" fill="white"/>
<circle cx="33" cy="80" r="1" transform="rotate(180 33 80)" fill="white"/>
<circle cx="33" cy="75" r="1" transform="rotate(180 33 75)" fill="white"/>
<circle cx="33" cy="70" r="1" transform="rotate(180 33 70)" fill="white"/>
<circle cx="33" cy="65" r="1" transform="rotate(180 33 65)" fill="white"/>
<circle cx="33" cy="60" r="1" transform="rotate(180 33 60)" fill="white"/>
<circle cx="33" cy="55" r="1" transform="rotate(180 33 55)" fill="white"/>
<circle cx="33" cy="50" r="1" transform="rotate(180 33 50)" fill="white"/>
<circle cx="29" cy="95" r="1" transform="rotate(180 29 95)" fill="white"/>
<circle cx="29" cy="90" r="1" transform="rotate(180 29 90)" fill="white"/>
<circle cx="29" cy="85" r="1" transform="rotate(180 29 85)" fill="white"/>
<circle cx="29" cy="80" r="1" transform="rotate(180 29 80)" fill="white"/>
<circle cx="29" cy="75" r="1" transform="rotate(180 29 75)" fill="white"/>
<circle cx="29" cy="70" r="1" transform="rotate(180 29 70)" fill="white"/>
<circle cx="29" cy="65" r="1" transform="rotate(180 29 65)" fill="white"/>
<circle cx="29" cy="60" r="1" transform="rotate(180 29 60)" fill="white"/>
<circle cx="29" cy="55" r="1" transform="rotate(180 29 55)" fill="white"/>
<circle cx="29" cy="50" r="1" transform="rotate(180 29 50)" fill="white"/>
<circle cx="25" cy="95" r="1" transform="rotate(180 25 95)" fill="white"/>
<circle cx="25" cy="90" r="1" transform="rotate(180 25 90)" fill="white"/>
<circle cx="25" cy="85" r="1" transform="rotate(180 25 85)" fill="white"/>
<circle cx="25" cy="80" r="1" transform="rotate(180 25 80)" fill="white"/>
<circle cx="25" cy="75" r="1" transform="rotate(180 25 75)" fill="white"/>
<circle cx="25" cy="70" r="1" transform="rotate(180 25 70)" fill="white"/>
<circle cx="25" cy="65" r="1" transform="rotate(180 25 65)" fill="white"/>
<circle cx="25" cy="60" r="1" transform="rotate(180 25 60)" fill="white"/>
<circle cx="25" cy="55" r="1" transform="rotate(180 25 55)" fill="white"/>
<circle cx="25" cy="50" r="1" transform="rotate(180 25 50)" fill="white"/>
<circle cx="21" cy="95" r="1" transform="rotate(180 21 95)" fill="white"/>
<circle cx="21" cy="90" r="1" transform="rotate(180 21 90)" fill="white"/>
<circle cx="21" cy="85" r="1" transform="rotate(180 21 85)" fill="white"/>
<circle cx="21" cy="80" r="1" transform="rotate(180 21 80)" fill="white"/>
<circle cx="21" cy="75" r="1" transform="rotate(180 21 75)" fill="white"/>
<circle cx="21" cy="70" r="1" transform="rotate(180 21 70)" fill="white"/>
<circle cx="21" cy="65" r="1" transform="rotate(180 21 65)" fill="white"/>
<circle cx="21" cy="60" r="1" transform="rotate(180 21 60)" fill="white"/>
<circle cx="21" cy="55" r="1" transform="rotate(180 21 55)" fill="white"/>
<circle cx="21" cy="50" r="1" transform="rotate(180 21 50)" fill="white"/>
<circle cx="17" cy="95" r="1" transform="rotate(180 17 95)" fill="white"/>
<circle cx="17" cy="90" r="1" transform="rotate(180 17 90)" fill="white"/>
<circle cx="17" cy="85" r="1" transform="rotate(180 17 85)" fill="white"/>
<circle cx="17" cy="80" r="1" transform="rotate(180 17 80)" fill="white"/>
<circle cx="17" cy="75" r="1" transform="rotate(180 17 75)" fill="white"/>
<circle cx="17" cy="70" r="1" transform="rotate(180 17 70)" fill="white"/>
<circle cx="17" cy="65" r="1" transform="rotate(180 17 65)" fill="white"/>
<circle cx="17" cy="60" r="1" transform="rotate(180 17 60)" fill="white"/>
<circle cx="17" cy="55" r="1" transform="rotate(180 17 55)" fill="white"/>
<circle cx="17" cy="50" r="1" transform="rotate(180 17 50)" fill="white"/>
<circle cx="13" cy="95" r="1" transform="rotate(180 13 95)" fill="white"/>
<circle cx="13" cy="90" r="1" transform="rotate(180 13 90)" fill="white"/>
<circle cx="13" cy="85" r="1" transform="rotate(180 13 85)" fill="white"/>
<circle cx="13" cy="80" r="1" transform="rotate(180 13 80)" fill="white"/>
<circle cx="13" cy="75" r="1" transform="rotate(180 13 75)" fill="white"/>
<circle cx="13" cy="70" r="1" transform="rotate(180 13 70)" fill="white"/>
<circle cx="13" cy="65" r="1" transform="rotate(180 13 65)" fill="white"/>
<circle cx="13" cy="60" r="1" transform="rotate(180 13 60)" fill="white"/>
<circle cx="13" cy="55" r="1" transform="rotate(180 13 55)" fill="white"/>
<circle cx="13" cy="50" r="1" transform="rotate(180 13 50)" fill="white"/>
<circle cx="9" cy="95" r="1" transform="rotate(180 9 95)" fill="white"/>
<circle cx="9" cy="90" r="1" transform="rotate(180 9 90)" fill="white"/>
<circle cx="9" cy="85" r="1" transform="rotate(180 9 85)" fill="white"/>
<circle cx="9" cy="80" r="1" transform="rotate(180 9 80)" fill="white"/>
<circle cx="9" cy="75" r="1" transform="rotate(180 9 75)" fill="white"/>
<circle cx="9" cy="70" r="1" transform="rotate(180 9 70)" fill="white"/>
<circle cx="9" cy="65" r="1" transform="rotate(180 9 65)" fill="white"/>
<circle cx="9" cy="60" r="1" transform="rotate(180 9 60)" fill="white"/>
<circle cx="9" cy="55" r="1" transform="rotate(180 9 55)" fill="white"/>
<circle cx="9" cy="50" r="1" transform="rotate(180 9 50)" fill="white"/>
<circle cx="5" cy="95" r="1" transform="rotate(180 5 95)" fill="white"/>
<circle cx="5" cy="90" r="1" transform="rotate(180 5 90)" fill="white"/>
<circle cx="5" cy="85" r="1" transform="rotate(180 5 85)" fill="white"/>
<circle cx="5" cy="80" r="1" transform="rotate(180 5 80)" fill="white"/>
<circle cx="5" cy="75" r="1" transform="rotate(180 5 75)" fill="white"/>
<circle cx="5" cy="70" r="1" transform="rotate(180 5 70)" fill="white"/>
<circle cx="5" cy="65" r="1" transform="rotate(180 5 65)" fill="white"/>
<circle cx="5" cy="60" r="1" transform="rotate(180 5 60)" fill="white"/>
<circle cx="5" cy="55" r="1" transform="rotate(180 5 55)" fill="white"/>
<circle cx="5" cy="50" r="1" transform="rotate(180 5 50)" fill="white"/>
<circle cx="1" cy="95" r="1" transform="rotate(180 1 95)" fill="white"/>
<circle cx="1" cy="90" r="1" transform="rotate(180 1 90)" fill="white"/>
<circle cx="1" cy="85" r="1" transform="rotate(180 1 85)" fill="white"/>
<circle cx="1" cy="80" r="1" transform="rotate(180 1 80)" fill="white"/>
<circle cx="1" cy="75" r="1" transform="rotate(180 1 75)" fill="white"/>
<circle cx="1" cy="70" r="1" transform="rotate(180 1 70)" fill="white"/>
<circle cx="1" cy="65" r="1" transform="rotate(180 1 65)" fill="white"/>
<circle cx="1" cy="60" r="1" transform="rotate(180 1 60)" fill="white"/>
<circle cx="1" cy="55" r="1" transform="rotate(180 1 55)" fill="white"/>
<circle cx="1" cy="50" r="1" transform="rotate(180 1 50)" fill="white"/>
<circle cx="57" cy="46" r="1" transform="rotate(180 57 46)" fill="white"/>
<circle cx="57" cy="41" r="1" transform="rotate(180 57 41)" fill="white"/>
<circle cx="57" cy="36" r="1" transform="rotate(180 57 36)" fill="white"/>
<circle cx="57" cy="31" r="1" transform="rotate(180 57 31)" fill="white"/>
<circle cx="57" cy="26" r="1" transform="rotate(180 57 26)" fill="white"/>
<circle cx="57" cy="21" r="1" transform="rotate(180 57 21)" fill="white"/>
<circle cx="57" cy="16" r="1" transform="rotate(180 57 16)" fill="white"/>
<circle cx="57" cy="11" r="1" transform="rotate(180 57 11)" fill="white"/>
<circle cx="57" cy="6" r="1" transform="rotate(180 57 6)" fill="white"/>
<circle cx="57" cy="1" r="1" transform="rotate(180 57 1)" fill="white"/>
<circle cx="53" cy="46" r="1" transform="rotate(180 53 46)" fill="white"/>
<circle cx="53" cy="41" r="1" transform="rotate(180 53 41)" fill="white"/>
<circle cx="53" cy="36" r="1" transform="rotate(180 53 36)" fill="white"/>
<circle cx="53" cy="31" r="1" transform="rotate(180 53 31)" fill="white"/>
<circle cx="53" cy="26" r="1" transform="rotate(180 53 26)" fill="white"/>
<circle cx="53" cy="21" r="1" transform="rotate(180 53 21)" fill="white"/>
<circle cx="53" cy="16" r="1" transform="rotate(180 53 16)" fill="white"/>
<circle cx="53" cy="11" r="1" transform="rotate(180 53 11)" fill="white"/>
<circle cx="53" cy="6" r="1" transform="rotate(180 53 6)" fill="white"/>
<circle cx="53" cy="1" r="1" transform="rotate(180 53 1)" fill="white"/>
<circle cx="49" cy="46" r="1" transform="rotate(180 49 46)" fill="white"/>
<circle cx="49" cy="41" r="1" transform="rotate(180 49 41)" fill="white"/>
<circle cx="49" cy="36" r="1" transform="rotate(180 49 36)" fill="white"/>
<circle cx="49" cy="31" r="1" transform="rotate(180 49 31)" fill="white"/>
<circle cx="49" cy="26" r="1" transform="rotate(180 49 26)" fill="white"/>
<circle cx="49" cy="21" r="1" transform="rotate(180 49 21)" fill="white"/>
<circle cx="49" cy="16" r="1" transform="rotate(180 49 16)" fill="white"/>
<circle cx="49" cy="11" r="1" transform="rotate(180 49 11)" fill="white"/>
<circle cx="49" cy="6" r="1" transform="rotate(180 49 6)" fill="white"/>
<circle cx="49" cy="1" r="1" transform="rotate(180 49 1)" fill="white"/>
<circle cx="45" cy="46" r="1" transform="rotate(180 45 46)" fill="white"/>
<circle cx="45" cy="41" r="1" transform="rotate(180 45 41)" fill="white"/>
<circle cx="45" cy="36" r="1" transform="rotate(180 45 36)" fill="white"/>
<circle cx="45" cy="31" r="1" transform="rotate(180 45 31)" fill="white"/>
<circle cx="45" cy="26" r="1" transform="rotate(180 45 26)" fill="white"/>
<circle cx="45" cy="21" r="1" transform="rotate(180 45 21)" fill="white"/>
<circle cx="45" cy="16" r="1" transform="rotate(180 45 16)" fill="white"/>
<circle cx="45" cy="11" r="1" transform="rotate(180 45 11)" fill="white"/>
<circle cx="45" cy="6" r="1" transform="rotate(180 45 6)" fill="white"/>
<circle cx="45" cy="1" r="1" transform="rotate(180 45 1)" fill="white"/>
<circle cx="41" cy="46" r="1" transform="rotate(180 41 46)" fill="white"/>
<circle cx="41" cy="41" r="1" transform="rotate(180 41 41)" fill="white"/>
<circle cx="41" cy="36" r="1" transform="rotate(180 41 36)" fill="white"/>
<circle cx="41" cy="31" r="1" transform="rotate(180 41 31)" fill="white"/>
<circle cx="41" cy="26" r="1" transform="rotate(180 41 26)" fill="white"/>
<circle cx="41" cy="21" r="1" transform="rotate(180 41 21)" fill="white"/>
<circle cx="41" cy="16" r="1" transform="rotate(180 41 16)" fill="white"/>
<circle cx="41" cy="11" r="1" transform="rotate(180 41 11)" fill="white"/>
<circle cx="41" cy="6" r="1" transform="rotate(180 41 6)" fill="white"/>
<circle cx="41" cy="1" r="1" transform="rotate(180 41 1)" fill="white"/>
<circle cx="37" cy="46" r="1" transform="rotate(180 37 46)" fill="white"/>
<circle cx="37" cy="41" r="1" transform="rotate(180 37 41)" fill="white"/>
<circle cx="37" cy="36" r="1" transform="rotate(180 37 36)" fill="white"/>
<circle cx="37" cy="31" r="1" transform="rotate(180 37 31)" fill="white"/>
<circle cx="37" cy="26" r="1" transform="rotate(180 37 26)" fill="white"/>
<circle cx="37" cy="21" r="1" transform="rotate(180 37 21)" fill="white"/>
<circle cx="37" cy="16" r="1" transform="rotate(180 37 16)" fill="white"/>
<circle cx="37" cy="11" r="1" transform="rotate(180 37 11)" fill="white"/>
<circle cx="37" cy="6" r="1" transform="rotate(180 37 6)" fill="white"/>
<circle cx="37" cy="1" r="1" transform="rotate(180 37 1)" fill="white"/>
<circle cx="33" cy="46" r="1" transform="rotate(180 33 46)" fill="white"/>
<circle cx="33" cy="41" r="1" transform="rotate(180 33 41)" fill="white"/>
<circle cx="33" cy="36" r="1" transform="rotate(180 33 36)" fill="white"/>
<circle cx="33" cy="31" r="1" transform="rotate(180 33 31)" fill="white"/>
<circle cx="33" cy="26" r="1" transform="rotate(180 33 26)" fill="white"/>
<circle cx="33" cy="21" r="1" transform="rotate(180 33 21)" fill="white"/>
<circle cx="33" cy="16" r="1" transform="rotate(180 33 16)" fill="white"/>
<circle cx="33" cy="11" r="1" transform="rotate(180 33 11)" fill="white"/>
<circle cx="33" cy="6" r="1" transform="rotate(180 33 6)" fill="white"/>
<circle cx="33" cy="1" r="1" transform="rotate(180 33 1)" fill="white"/>
<circle cx="29" cy="46" r="1" transform="rotate(180 29 46)" fill="white"/>
<circle cx="29" cy="41" r="1" transform="rotate(180 29 41)" fill="white"/>
<circle cx="29" cy="36" r="1" transform="rotate(180 29 36)" fill="white"/>
<circle cx="29" cy="31" r="1" transform="rotate(180 29 31)" fill="white"/>
<circle cx="29" cy="26" r="1" transform="rotate(180 29 26)" fill="white"/>
<circle cx="29" cy="21" r="1" transform="rotate(180 29 21)" fill="white"/>
<circle cx="29" cy="16" r="1" transform="rotate(180 29 16)" fill="white"/>
<circle cx="29" cy="11" r="1" transform="rotate(180 29 11)" fill="white"/>
<circle cx="29" cy="6" r="1" transform="rotate(180 29 6)" fill="white"/>
<circle cx="29" cy="1" r="1" transform="rotate(180 29 1)" fill="white"/>
<circle cx="25" cy="46" r="1" transform="rotate(180 25 46)" fill="white"/>
<circle cx="25" cy="41" r="1" transform="rotate(180 25 41)" fill="white"/>
<circle cx="25" cy="36" r="1" transform="rotate(180 25 36)" fill="white"/>
<circle cx="25" cy="31" r="1" transform="rotate(180 25 31)" fill="white"/>
<circle cx="25" cy="26" r="1" transform="rotate(180 25 26)" fill="white"/>
<circle cx="25" cy="21" r="1" transform="rotate(180 25 21)" fill="white"/>
<circle cx="25" cy="16" r="1" transform="rotate(180 25 16)" fill="white"/>
<circle cx="25" cy="11" r="1" transform="rotate(180 25 11)" fill="white"/>
<circle cx="25" cy="6" r="1" transform="rotate(180 25 6)" fill="white"/>
<circle cx="25" cy="1" r="1" transform="rotate(180 25 1)" fill="white"/>
<circle cx="21" cy="46" r="1" transform="rotate(180 21 46)" fill="white"/>
<circle cx="21" cy="41" r="1" transform="rotate(180 21 41)" fill="white"/>
<circle cx="21" cy="36" r="1" transform="rotate(180 21 36)" fill="white"/>
<circle cx="21" cy="31" r="1" transform="rotate(180 21 31)" fill="white"/>
<circle cx="21" cy="26" r="1" transform="rotate(180 21 26)" fill="white"/>
<circle cx="21" cy="21" r="1" transform="rotate(180 21 21)" fill="white"/>
<circle cx="21" cy="16" r="1" transform="rotate(180 21 16)" fill="white"/>
<circle cx="21" cy="11" r="1" transform="rotate(180 21 11)" fill="white"/>
<circle cx="21" cy="6" r="1" transform="rotate(180 21 6)" fill="white"/>
<circle cx="21" cy="1" r="1" transform="rotate(180 21 1)" fill="white"/>
<circle cx="17" cy="46" r="1" transform="rotate(180 17 46)" fill="white"/>
<circle cx="17" cy="41" r="1" transform="rotate(180 17 41)" fill="white"/>
<circle cx="17" cy="36" r="1" transform="rotate(180 17 36)" fill="white"/>
<circle cx="17" cy="31" r="1" transform="rotate(180 17 31)" fill="white"/>
<circle cx="17" cy="26" r="1" transform="rotate(180 17 26)" fill="white"/>
<circle cx="17" cy="21" r="1" transform="rotate(180 17 21)" fill="white"/>
<circle cx="17" cy="16" r="1" transform="rotate(180 17 16)" fill="white"/>
<circle cx="17" cy="11" r="1" transform="rotate(180 17 11)" fill="white"/>
<circle cx="17" cy="6" r="1" transform="rotate(180 17 6)" fill="white"/>
<circle cx="17" cy="1" r="1" transform="rotate(180 17 1)" fill="white"/>
<circle cx="13" cy="46" r="1" transform="rotate(180 13 46)" fill="white"/>
<circle cx="13" cy="41" r="1" transform="rotate(180 13 41)" fill="white"/>
<circle cx="13" cy="36" r="1" transform="rotate(180 13 36)" fill="white"/>
<circle cx="13" cy="31" r="1" transform="rotate(180 13 31)" fill="white"/>
<circle cx="13" cy="26" r="1" transform="rotate(180 13 26)" fill="white"/>
<circle cx="13" cy="21" r="1" transform="rotate(180 13 21)" fill="white"/>
<circle cx="13" cy="16" r="1" transform="rotate(180 13 16)" fill="white"/>
<circle cx="13" cy="11" r="1" transform="rotate(180 13 11)" fill="white"/>
<circle cx="13" cy="6" r="1" transform="rotate(180 13 6)" fill="white"/>
<circle cx="13" cy="1" r="1" transform="rotate(180 13 1)" fill="white"/>
<circle cx="9" cy="46" r="1" transform="rotate(180 9 46)" fill="white"/>
<circle cx="9" cy="41" r="1" transform="rotate(180 9 41)" fill="white"/>
<circle cx="9" cy="36" r="1" transform="rotate(180 9 36)" fill="white"/>
<circle cx="9" cy="31" r="1" transform="rotate(180 9 31)" fill="white"/>
<circle cx="9" cy="26" r="1" transform="rotate(180 9 26)" fill="white"/>
<circle cx="9" cy="21" r="1" transform="rotate(180 9 21)" fill="white"/>
<circle cx="9" cy="16" r="1" transform="rotate(180 9 16)" fill="white"/>
<circle cx="9" cy="11" r="1" transform="rotate(180 9 11)" fill="white"/>
<circle cx="9" cy="6" r="1" transform="rotate(180 9 6)" fill="white"/>
<circle cx="9" cy="1" r="1" transform="rotate(180 9 1)" fill="white"/>
<circle cx="5" cy="46" r="1" transform="rotate(180 5 46)" fill="white"/>
<circle cx="5" cy="41" r="1" transform="rotate(180 5 41)" fill="white"/>
<circle cx="5" cy="36" r="1" transform="rotate(180 5 36)" fill="white"/>
<circle cx="5" cy="31" r="1" transform="rotate(180 5 31)" fill="white"/>
<circle cx="5" cy="26" r="1" transform="rotate(180 5 26)" fill="white"/>
<circle cx="5" cy="21" r="1" transform="rotate(180 5 21)" fill="white"/>
<circle cx="5" cy="16" r="1" transform="rotate(180 5 16)" fill="white"/>
<circle cx="5" cy="11" r="1" transform="rotate(180 5 11)" fill="white"/>
<circle cx="5" cy="6" r="1" transform="rotate(180 5 6)" fill="white"/>
<circle cx="5" cy="1" r="1" transform="rotate(180 5 1)" fill="white"/>
<circle cx="1" cy="46" r="1" transform="rotate(180 1 46)" fill="white"/>
<circle cx="1" cy="41" r="1" transform="rotate(180 1 41)" fill="white"/>
<circle cx="1" cy="36" r="1" transform="rotate(180 1 36)" fill="white"/>
<circle cx="1" cy="31" r="1" transform="rotate(180 1 31)" fill="white"/>
<circle cx="1" cy="26" r="1" transform="rotate(180 1 26)" fill="white"/>
<circle cx="1" cy="21" r="1" transform="rotate(180 1 21)" fill="white"/>
<circle cx="1" cy="16" r="1" transform="rotate(180 1 16)" fill="white"/>
<circle cx="1" cy="11" r="1" transform="rotate(180 1 11)" fill="white"/>
<circle cx="1" cy="6" r="1" transform="rotate(180 1 6)" fill="white"/>
<circle cx="1" cy="1" r="1" transform="rotate(180 1 1)" fill="white"/>
</svg>
