<svg width="96" height="58" viewBox="0 0 96 58" fill="none" xmlns="http://www.w3.org/2000/svg">
<circle cx="1" cy="57" r="1" transform="rotate(-90 1 57)" fill="#0182C4"/>
<circle cx="6" cy="57" r="1" transform="rotate(-90 6 57)" fill="#0182C4"/>
<circle cx="11" cy="57" r="1" transform="rotate(-90 11 57)" fill="#0182C4"/>
<circle cx="16" cy="57" r="1" transform="rotate(-90 16 57)" fill="#0182C4"/>
<circle cx="21" cy="57" r="1" transform="rotate(-90 21 57)" fill="#0182C4"/>
<circle cx="26" cy="57" r="1" transform="rotate(-90 26 57)" fill="#0182C4"/>
<circle cx="31" cy="57" r="1" transform="rotate(-90 31 57)" fill="#0182C4"/>
<circle cx="36" cy="57" r="1" transform="rotate(-90 36 57)" fill="#0182C4"/>
<circle cx="41" cy="57" r="1" transform="rotate(-90 41 57)" fill="#0182C4"/>
<circle cx="46" cy="57" r="1" transform="rotate(-90 46 57)" fill="#0182C4"/>
<circle cx="1" cy="53" r="1" transform="rotate(-90 1 53)" fill="#0182C4"/>
<circle cx="6" cy="53" r="1" transform="rotate(-90 6 53)" fill="#0182C4"/>
<circle cx="11" cy="53" r="1" transform="rotate(-90 11 53)" fill="#0182C4"/>
<circle cx="16" cy="53" r="1" transform="rotate(-90 16 53)" fill="#0182C4"/>
<circle cx="21" cy="53" r="1" transform="rotate(-90 21 53)" fill="#0182C4"/>
<circle cx="26" cy="53" r="1" transform="rotate(-90 26 53)" fill="#0182C4"/>
<circle cx="31" cy="53" r="1" transform="rotate(-90 31 53)" fill="#0182C4"/>
<circle cx="36" cy="53" r="1" transform="rotate(-90 36 53)" fill="#0182C4"/>
<circle cx="41" cy="53" r="1" transform="rotate(-90 41 53)" fill="#0182C4"/>
<circle cx="46" cy="53" r="1" transform="rotate(-90 46 53)" fill="#0182C4"/>
<circle cx="1" cy="49" r="1" transform="rotate(-90 1 49)" fill="#0182C4"/>
<circle cx="6" cy="49" r="1" transform="rotate(-90 6 49)" fill="#0182C4"/>
<circle cx="11" cy="49" r="1" transform="rotate(-90 11 49)" fill="#0182C4"/>
<circle cx="16" cy="49" r="1" transform="rotate(-90 16 49)" fill="#0182C4"/>
<circle cx="21" cy="49" r="1" transform="rotate(-90 21 49)" fill="#0182C4"/>
<circle cx="26" cy="49" r="1" transform="rotate(-90 26 49)" fill="#0182C4"/>
<circle cx="31" cy="49" r="1" transform="rotate(-90 31 49)" fill="#0182C4"/>
<circle cx="36" cy="49" r="1" transform="rotate(-90 36 49)" fill="#0182C4"/>
<circle cx="41" cy="49" r="1" transform="rotate(-90 41 49)" fill="#0182C4"/>
<circle cx="46" cy="49" r="1" transform="rotate(-90 46 49)" fill="#0182C4"/>
<circle cx="1" cy="45" r="1" transform="rotate(-90 1 45)" fill="#0182C4"/>
<circle cx="6" cy="45" r="1" transform="rotate(-90 6 45)" fill="#0182C4"/>
<circle cx="11" cy="45" r="1" transform="rotate(-90 11 45)" fill="#0182C4"/>
<circle cx="16" cy="45" r="1" transform="rotate(-90 16 45)" fill="#0182C4"/>
<circle cx="21" cy="45" r="1" transform="rotate(-90 21 45)" fill="#0182C4"/>
<circle cx="26" cy="45" r="1" transform="rotate(-90 26 45)" fill="#0182C4"/>
<circle cx="31" cy="45" r="1" transform="rotate(-90 31 45)" fill="#0182C4"/>
<circle cx="36" cy="45" r="1" transform="rotate(-90 36 45)" fill="#0182C4"/>
<circle cx="41" cy="45" r="1" transform="rotate(-90 41 45)" fill="#0182C4"/>
<circle cx="46" cy="45" r="1" transform="rotate(-90 46 45)" fill="#0182C4"/>
<circle cx="1" cy="41" r="1" transform="rotate(-90 1 41)" fill="#0182C4"/>
<circle cx="6" cy="41" r="1" transform="rotate(-90 6 41)" fill="#0182C4"/>
<circle cx="11" cy="41" r="1" transform="rotate(-90 11 41)" fill="#0182C4"/>
<circle cx="16" cy="41" r="1" transform="rotate(-90 16 41)" fill="#0182C4"/>
<circle cx="21" cy="41" r="1" transform="rotate(-90 21 41)" fill="#0182C4"/>
<circle cx="26" cy="41" r="1" transform="rotate(-90 26 41)" fill="#0182C4"/>
<circle cx="31" cy="41" r="1" transform="rotate(-90 31 41)" fill="#0182C4"/>
<circle cx="36" cy="41" r="1" transform="rotate(-90 36 41)" fill="#0182C4"/>
<circle cx="41" cy="41" r="1" transform="rotate(-90 41 41)" fill="#0182C4"/>
<circle cx="46" cy="41" r="1" transform="rotate(-90 46 41)" fill="#0182C4"/>
<circle cx="1" cy="37" r="1" transform="rotate(-90 1 37)" fill="#0182C4"/>
<circle cx="6" cy="37" r="1" transform="rotate(-90 6 37)" fill="#0182C4"/>
<circle cx="11" cy="37" r="1" transform="rotate(-90 11 37)" fill="#0182C4"/>
<circle cx="16" cy="37" r="1" transform="rotate(-90 16 37)" fill="#0182C4"/>
<circle cx="21" cy="37" r="1" transform="rotate(-90 21 37)" fill="#0182C4"/>
<circle cx="26" cy="37" r="1" transform="rotate(-90 26 37)" fill="#0182C4"/>
<circle cx="31" cy="37" r="1" transform="rotate(-90 31 37)" fill="#0182C4"/>
<circle cx="36" cy="37" r="1" transform="rotate(-90 36 37)" fill="#0182C4"/>
<circle cx="41" cy="37" r="1" transform="rotate(-90 41 37)" fill="#0182C4"/>
<circle cx="46" cy="37" r="1" transform="rotate(-90 46 37)" fill="#0182C4"/>
<circle cx="1" cy="33" r="1" transform="rotate(-90 1 33)" fill="#0182C4"/>
<circle cx="6" cy="33" r="1" transform="rotate(-90 6 33)" fill="#0182C4"/>
<circle cx="11" cy="33" r="1" transform="rotate(-90 11 33)" fill="#0182C4"/>
<circle cx="16" cy="33" r="1" transform="rotate(-90 16 33)" fill="#0182C4"/>
<circle cx="21" cy="33" r="1" transform="rotate(-90 21 33)" fill="#0182C4"/>
<circle cx="26" cy="33" r="1" transform="rotate(-90 26 33)" fill="#0182C4"/>
<circle cx="31" cy="33" r="1" transform="rotate(-90 31 33)" fill="#0182C4"/>
<circle cx="36" cy="33" r="1" transform="rotate(-90 36 33)" fill="#0182C4"/>
<circle cx="41" cy="33" r="1" transform="rotate(-90 41 33)" fill="#0182C4"/>
<circle cx="46" cy="33" r="1" transform="rotate(-90 46 33)" fill="#0182C4"/>
<circle cx="1" cy="29" r="1" transform="rotate(-90 1 29)" fill="#0182C4"/>
<circle cx="6" cy="29" r="1" transform="rotate(-90 6 29)" fill="#0182C4"/>
<circle cx="11" cy="29" r="1" transform="rotate(-90 11 29)" fill="#0182C4"/>
<circle cx="16" cy="29" r="1" transform="rotate(-90 16 29)" fill="#0182C4"/>
<circle cx="21" cy="29" r="1" transform="rotate(-90 21 29)" fill="#0182C4"/>
<circle cx="26" cy="29" r="1" transform="rotate(-90 26 29)" fill="#0182C4"/>
<circle cx="31" cy="29" r="1" transform="rotate(-90 31 29)" fill="#0182C4"/>
<circle cx="36" cy="29" r="1" transform="rotate(-90 36 29)" fill="#0182C4"/>
<circle cx="41" cy="29" r="1" transform="rotate(-90 41 29)" fill="#0182C4"/>
<circle cx="46" cy="29" r="1" transform="rotate(-90 46 29)" fill="#0182C4"/>
<circle cx="1" cy="25" r="1" transform="rotate(-90 1 25)" fill="#0182C4"/>
<circle cx="6" cy="25" r="1" transform="rotate(-90 6 25)" fill="#0182C4"/>
<circle cx="11" cy="25" r="1" transform="rotate(-90 11 25)" fill="#0182C4"/>
<circle cx="16" cy="25" r="1" transform="rotate(-90 16 25)" fill="#0182C4"/>
<circle cx="21" cy="25" r="1" transform="rotate(-90 21 25)" fill="#0182C4"/>
<circle cx="26" cy="25" r="1" transform="rotate(-90 26 25)" fill="#0182C4"/>
<circle cx="31" cy="25" r="1" transform="rotate(-90 31 25)" fill="#0182C4"/>
<circle cx="36" cy="25" r="1" transform="rotate(-90 36 25)" fill="#0182C4"/>
<circle cx="41" cy="25" r="1" transform="rotate(-90 41 25)" fill="#0182C4"/>
<circle cx="46" cy="25" r="1" transform="rotate(-90 46 25)" fill="#0182C4"/>
<circle cx="1" cy="21" r="1" transform="rotate(-90 1 21)" fill="#0182C4"/>
<circle cx="6" cy="21" r="1" transform="rotate(-90 6 21)" fill="#0182C4"/>
<circle cx="11" cy="21" r="1" transform="rotate(-90 11 21)" fill="#0182C4"/>
<circle cx="16" cy="21" r="1" transform="rotate(-90 16 21)" fill="#0182C4"/>
<circle cx="21" cy="21" r="1" transform="rotate(-90 21 21)" fill="#0182C4"/>
<circle cx="26" cy="21" r="1" transform="rotate(-90 26 21)" fill="#0182C4"/>
<circle cx="31" cy="21" r="1" transform="rotate(-90 31 21)" fill="#0182C4"/>
<circle cx="36" cy="21" r="1" transform="rotate(-90 36 21)" fill="#0182C4"/>
<circle cx="41" cy="21" r="1" transform="rotate(-90 41 21)" fill="#0182C4"/>
<circle cx="46" cy="21" r="1" transform="rotate(-90 46 21)" fill="#0182C4"/>
<circle cx="1" cy="17" r="1" transform="rotate(-90 1 17)" fill="#0182C4"/>
<circle cx="6" cy="17" r="1" transform="rotate(-90 6 17)" fill="#0182C4"/>
<circle cx="11" cy="17" r="1" transform="rotate(-90 11 17)" fill="#0182C4"/>
<circle cx="16" cy="17" r="1" transform="rotate(-90 16 17)" fill="#0182C4"/>
<circle cx="21" cy="17" r="1" transform="rotate(-90 21 17)" fill="#0182C4"/>
<circle cx="26" cy="17" r="1" transform="rotate(-90 26 17)" fill="#0182C4"/>
<circle cx="31" cy="17" r="1" transform="rotate(-90 31 17)" fill="#0182C4"/>
<circle cx="36" cy="17" r="1" transform="rotate(-90 36 17)" fill="#0182C4"/>
<circle cx="41" cy="17" r="1" transform="rotate(-90 41 17)" fill="#0182C4"/>
<circle cx="46" cy="17" r="1" transform="rotate(-90 46 17)" fill="#0182C4"/>
<circle cx="1" cy="13" r="1" transform="rotate(-90 1 13)" fill="#0182C4"/>
<circle cx="6" cy="13" r="1" transform="rotate(-90 6 13)" fill="#0182C4"/>
<circle cx="11" cy="13" r="1" transform="rotate(-90 11 13)" fill="#0182C4"/>
<circle cx="16" cy="13" r="1" transform="rotate(-90 16 13)" fill="#0182C4"/>
<circle cx="21" cy="13" r="1" transform="rotate(-90 21 13)" fill="#0182C4"/>
<circle cx="26" cy="13" r="1" transform="rotate(-90 26 13)" fill="#0182C4"/>
<circle cx="31" cy="13" r="1" transform="rotate(-90 31 13)" fill="#0182C4"/>
<circle cx="36" cy="13" r="1" transform="rotate(-90 36 13)" fill="#0182C4"/>
<circle cx="41" cy="13" r="1" transform="rotate(-90 41 13)" fill="#0182C4"/>
<circle cx="46" cy="13" r="1" transform="rotate(-90 46 13)" fill="#0182C4"/>
<circle cx="1" cy="9" r="1" transform="rotate(-90 1 9)" fill="#0182C4"/>
<circle cx="6" cy="9" r="1" transform="rotate(-90 6 9)" fill="#0182C4"/>
<circle cx="11" cy="9" r="1" transform="rotate(-90 11 9)" fill="#0182C4"/>
<circle cx="16" cy="9" r="1" transform="rotate(-90 16 9)" fill="#0182C4"/>
<circle cx="21" cy="9" r="1" transform="rotate(-90 21 9)" fill="#0182C4"/>
<circle cx="26" cy="9" r="1" transform="rotate(-90 26 9)" fill="#0182C4"/>
<circle cx="31" cy="9" r="1" transform="rotate(-90 31 9)" fill="#0182C4"/>
<circle cx="36" cy="9" r="1" transform="rotate(-90 36 9)" fill="#0182C4"/>
<circle cx="41" cy="9" r="1" transform="rotate(-90 41 9)" fill="#0182C4"/>
<circle cx="46" cy="9" r="1" transform="rotate(-90 46 9)" fill="#0182C4"/>
<circle cx="1" cy="5" r="1" transform="rotate(-90 1 5)" fill="#0182C4"/>
<circle cx="6" cy="5" r="1" transform="rotate(-90 6 5)" fill="#0182C4"/>
<circle cx="11" cy="5" r="1" transform="rotate(-90 11 5)" fill="#0182C4"/>
<circle cx="16" cy="5" r="1" transform="rotate(-90 16 5)" fill="#0182C4"/>
<circle cx="21" cy="5" r="1" transform="rotate(-90 21 5)" fill="#0182C4"/>
<circle cx="26" cy="5" r="1" transform="rotate(-90 26 5)" fill="#0182C4"/>
<circle cx="31" cy="5" r="1" transform="rotate(-90 31 5)" fill="#0182C4"/>
<circle cx="36" cy="5" r="1" transform="rotate(-90 36 5)" fill="#0182C4"/>
<circle cx="41" cy="5" r="1" transform="rotate(-90 41 5)" fill="#0182C4"/>
<circle cx="46" cy="5" r="1" transform="rotate(-90 46 5)" fill="#0182C4"/>
<circle cx="1" cy="1" r="1" transform="rotate(-90 1 1)" fill="#0182C4"/>
<circle cx="6" cy="1" r="1" transform="rotate(-90 6 1)" fill="#0182C4"/>
<circle cx="11" cy="1" r="1" transform="rotate(-90 11 1)" fill="#0182C4"/>
<circle cx="16" cy="1" r="1" transform="rotate(-90 16 1)" fill="#0182C4"/>
<circle cx="21" cy="1" r="1" transform="rotate(-90 21 1)" fill="#0182C4"/>
<circle cx="26" cy="1" r="1" transform="rotate(-90 26 1)" fill="#0182C4"/>
<circle cx="31" cy="1" r="1" transform="rotate(-90 31 1)" fill="#0182C4"/>
<circle cx="36" cy="1" r="1" transform="rotate(-90 36 1)" fill="#0182C4"/>
<circle cx="41" cy="1" r="1" transform="rotate(-90 41 1)" fill="#0182C4"/>
<circle cx="46" cy="1" r="1" transform="rotate(-90 46 1)" fill="#0182C4"/>
<circle cx="50" cy="57" r="1" transform="rotate(-90 50 57)" fill="#0182C4"/>
<circle cx="55" cy="57" r="1" transform="rotate(-90 55 57)" fill="#0182C4"/>
<circle cx="60" cy="57" r="1" transform="rotate(-90 60 57)" fill="#0182C4"/>
<circle cx="65" cy="57" r="1" transform="rotate(-90 65 57)" fill="#0182C4"/>
<circle cx="70" cy="57" r="1" transform="rotate(-90 70 57)" fill="#0182C4"/>
<circle cx="75" cy="57" r="1" transform="rotate(-90 75 57)" fill="#0182C4"/>
<circle cx="80" cy="57" r="1" transform="rotate(-90 80 57)" fill="#0182C4"/>
<circle cx="85" cy="57" r="1" transform="rotate(-90 85 57)" fill="#0182C4"/>
<circle cx="90" cy="57" r="1" transform="rotate(-90 90 57)" fill="#0182C4"/>
<circle cx="95" cy="57" r="1" transform="rotate(-90 95 57)" fill="#0182C4"/>
<circle cx="50" cy="53" r="1" transform="rotate(-90 50 53)" fill="#0182C4"/>
<circle cx="55" cy="53" r="1" transform="rotate(-90 55 53)" fill="#0182C4"/>
<circle cx="60" cy="53" r="1" transform="rotate(-90 60 53)" fill="#0182C4"/>
<circle cx="65" cy="53" r="1" transform="rotate(-90 65 53)" fill="#0182C4"/>
<circle cx="70" cy="53" r="1" transform="rotate(-90 70 53)" fill="#0182C4"/>
<circle cx="75" cy="53" r="1" transform="rotate(-90 75 53)" fill="#0182C4"/>
<circle cx="80" cy="53" r="1" transform="rotate(-90 80 53)" fill="#0182C4"/>
<circle cx="85" cy="53" r="1" transform="rotate(-90 85 53)" fill="#0182C4"/>
<circle cx="90" cy="53" r="1" transform="rotate(-90 90 53)" fill="#0182C4"/>
<circle cx="95" cy="53" r="1" transform="rotate(-90 95 53)" fill="#0182C4"/>
<circle cx="50" cy="49" r="1" transform="rotate(-90 50 49)" fill="#0182C4"/>
<circle cx="55" cy="49" r="1" transform="rotate(-90 55 49)" fill="#0182C4"/>
<circle cx="60" cy="49" r="1" transform="rotate(-90 60 49)" fill="#0182C4"/>
<circle cx="65" cy="49" r="1" transform="rotate(-90 65 49)" fill="#0182C4"/>
<circle cx="70" cy="49" r="1" transform="rotate(-90 70 49)" fill="#0182C4"/>
<circle cx="75" cy="49" r="1" transform="rotate(-90 75 49)" fill="#0182C4"/>
<circle cx="80" cy="49" r="1" transform="rotate(-90 80 49)" fill="#0182C4"/>
<circle cx="85" cy="49" r="1" transform="rotate(-90 85 49)" fill="#0182C4"/>
<circle cx="90" cy="49" r="1" transform="rotate(-90 90 49)" fill="#0182C4"/>
<circle cx="95" cy="49" r="1" transform="rotate(-90 95 49)" fill="#0182C4"/>
<circle cx="50" cy="45" r="1" transform="rotate(-90 50 45)" fill="#0182C4"/>
<circle cx="55" cy="45" r="1" transform="rotate(-90 55 45)" fill="#0182C4"/>
<circle cx="60" cy="45" r="1" transform="rotate(-90 60 45)" fill="#0182C4"/>
<circle cx="65" cy="45" r="1" transform="rotate(-90 65 45)" fill="#0182C4"/>
<circle cx="70" cy="45" r="1" transform="rotate(-90 70 45)" fill="#0182C4"/>
<circle cx="75" cy="45" r="1" transform="rotate(-90 75 45)" fill="#0182C4"/>
<circle cx="80" cy="45" r="1" transform="rotate(-90 80 45)" fill="#0182C4"/>
<circle cx="85" cy="45" r="1" transform="rotate(-90 85 45)" fill="#0182C4"/>
<circle cx="90" cy="45" r="1" transform="rotate(-90 90 45)" fill="#0182C4"/>
<circle cx="95" cy="45" r="1" transform="rotate(-90 95 45)" fill="#0182C4"/>
<circle cx="50" cy="41" r="1" transform="rotate(-90 50 41)" fill="#0182C4"/>
<circle cx="55" cy="41" r="1" transform="rotate(-90 55 41)" fill="#0182C4"/>
<circle cx="60" cy="41" r="1" transform="rotate(-90 60 41)" fill="#0182C4"/>
<circle cx="65" cy="41" r="1" transform="rotate(-90 65 41)" fill="#0182C4"/>
<circle cx="70" cy="41" r="1" transform="rotate(-90 70 41)" fill="#0182C4"/>
<circle cx="75" cy="41" r="1" transform="rotate(-90 75 41)" fill="#0182C4"/>
<circle cx="80" cy="41" r="1" transform="rotate(-90 80 41)" fill="#0182C4"/>
<circle cx="85" cy="41" r="1" transform="rotate(-90 85 41)" fill="#0182C4"/>
<circle cx="90" cy="41" r="1" transform="rotate(-90 90 41)" fill="#0182C4"/>
<circle cx="95" cy="41" r="1" transform="rotate(-90 95 41)" fill="#0182C4"/>
<circle cx="50" cy="37" r="1" transform="rotate(-90 50 37)" fill="#0182C4"/>
<circle cx="55" cy="37" r="1" transform="rotate(-90 55 37)" fill="#0182C4"/>
<circle cx="60" cy="37" r="1" transform="rotate(-90 60 37)" fill="#0182C4"/>
<circle cx="65" cy="37" r="1" transform="rotate(-90 65 37)" fill="#0182C4"/>
<circle cx="70" cy="37" r="1" transform="rotate(-90 70 37)" fill="#0182C4"/>
<circle cx="75" cy="37" r="1" transform="rotate(-90 75 37)" fill="#0182C4"/>
<circle cx="80" cy="37" r="1" transform="rotate(-90 80 37)" fill="#0182C4"/>
<circle cx="85" cy="37" r="1" transform="rotate(-90 85 37)" fill="#0182C4"/>
<circle cx="90" cy="37" r="1" transform="rotate(-90 90 37)" fill="#0182C4"/>
<circle cx="95" cy="37" r="1" transform="rotate(-90 95 37)" fill="#0182C4"/>
<circle cx="50" cy="33" r="1" transform="rotate(-90 50 33)" fill="#0182C4"/>
<circle cx="55" cy="33" r="1" transform="rotate(-90 55 33)" fill="#0182C4"/>
<circle cx="60" cy="33" r="1" transform="rotate(-90 60 33)" fill="#0182C4"/>
<circle cx="65" cy="33" r="1" transform="rotate(-90 65 33)" fill="#0182C4"/>
<circle cx="70" cy="33" r="1" transform="rotate(-90 70 33)" fill="#0182C4"/>
<circle cx="75" cy="33" r="1" transform="rotate(-90 75 33)" fill="#0182C4"/>
<circle cx="80" cy="33" r="1" transform="rotate(-90 80 33)" fill="#0182C4"/>
<circle cx="85" cy="33" r="1" transform="rotate(-90 85 33)" fill="#0182C4"/>
<circle cx="90" cy="33" r="1" transform="rotate(-90 90 33)" fill="#0182C4"/>
<circle cx="95" cy="33" r="1" transform="rotate(-90 95 33)" fill="#0182C4"/>
<circle cx="50" cy="29" r="1" transform="rotate(-90 50 29)" fill="#0182C4"/>
<circle cx="55" cy="29" r="1" transform="rotate(-90 55 29)" fill="#0182C4"/>
<circle cx="60" cy="29" r="1" transform="rotate(-90 60 29)" fill="#0182C4"/>
<circle cx="65" cy="29" r="1" transform="rotate(-90 65 29)" fill="#0182C4"/>
<circle cx="70" cy="29" r="1" transform="rotate(-90 70 29)" fill="#0182C4"/>
<circle cx="75" cy="29" r="1" transform="rotate(-90 75 29)" fill="#0182C4"/>
<circle cx="80" cy="29" r="1" transform="rotate(-90 80 29)" fill="#0182C4"/>
<circle cx="85" cy="29" r="1" transform="rotate(-90 85 29)" fill="#0182C4"/>
<circle cx="90" cy="29" r="1" transform="rotate(-90 90 29)" fill="#0182C4"/>
<circle cx="95" cy="29" r="1" transform="rotate(-90 95 29)" fill="#0182C4"/>
<circle cx="50" cy="25" r="1" transform="rotate(-90 50 25)" fill="#0182C4"/>
<circle cx="55" cy="25" r="1" transform="rotate(-90 55 25)" fill="#0182C4"/>
<circle cx="60" cy="25" r="1" transform="rotate(-90 60 25)" fill="#0182C4"/>
<circle cx="65" cy="25" r="1" transform="rotate(-90 65 25)" fill="#0182C4"/>
<circle cx="70" cy="25" r="1" transform="rotate(-90 70 25)" fill="#0182C4"/>
<circle cx="75" cy="25" r="1" transform="rotate(-90 75 25)" fill="#0182C4"/>
<circle cx="80" cy="25" r="1" transform="rotate(-90 80 25)" fill="#0182C4"/>
<circle cx="85" cy="25" r="1" transform="rotate(-90 85 25)" fill="#0182C4"/>
<circle cx="90" cy="25" r="1" transform="rotate(-90 90 25)" fill="#0182C4"/>
<circle cx="95" cy="25" r="1" transform="rotate(-90 95 25)" fill="#0182C4"/>
<circle cx="50" cy="21" r="1" transform="rotate(-90 50 21)" fill="#0182C4"/>
<circle cx="55" cy="21" r="1" transform="rotate(-90 55 21)" fill="#0182C4"/>
<circle cx="60" cy="21" r="1" transform="rotate(-90 60 21)" fill="#0182C4"/>
<circle cx="65" cy="21" r="1" transform="rotate(-90 65 21)" fill="#0182C4"/>
<circle cx="70" cy="21" r="1" transform="rotate(-90 70 21)" fill="#0182C4"/>
<circle cx="75" cy="21" r="1" transform="rotate(-90 75 21)" fill="#0182C4"/>
<circle cx="80" cy="21" r="1" transform="rotate(-90 80 21)" fill="#0182C4"/>
<circle cx="85" cy="21" r="1" transform="rotate(-90 85 21)" fill="#0182C4"/>
<circle cx="90" cy="21" r="1" transform="rotate(-90 90 21)" fill="#0182C4"/>
<circle cx="95" cy="21" r="1" transform="rotate(-90 95 21)" fill="#0182C4"/>
<circle cx="50" cy="17" r="1" transform="rotate(-90 50 17)" fill="#0182C4"/>
<circle cx="55" cy="17" r="1" transform="rotate(-90 55 17)" fill="#0182C4"/>
<circle cx="60" cy="17" r="1" transform="rotate(-90 60 17)" fill="#0182C4"/>
<circle cx="65" cy="17" r="1" transform="rotate(-90 65 17)" fill="#0182C4"/>
<circle cx="70" cy="17" r="1" transform="rotate(-90 70 17)" fill="#0182C4"/>
<circle cx="75" cy="17" r="1" transform="rotate(-90 75 17)" fill="#0182C4"/>
<circle cx="80" cy="17" r="1" transform="rotate(-90 80 17)" fill="#0182C4"/>
<circle cx="85" cy="17" r="1" transform="rotate(-90 85 17)" fill="#0182C4"/>
<circle cx="90" cy="17" r="1" transform="rotate(-90 90 17)" fill="#0182C4"/>
<circle cx="95" cy="17" r="1" transform="rotate(-90 95 17)" fill="#0182C4"/>
<circle cx="50" cy="13" r="1" transform="rotate(-90 50 13)" fill="#0182C4"/>
<circle cx="55" cy="13" r="1" transform="rotate(-90 55 13)" fill="#0182C4"/>
<circle cx="60" cy="13" r="1" transform="rotate(-90 60 13)" fill="#0182C4"/>
<circle cx="65" cy="13" r="1" transform="rotate(-90 65 13)" fill="#0182C4"/>
<circle cx="70" cy="13" r="1" transform="rotate(-90 70 13)" fill="#0182C4"/>
<circle cx="75" cy="13" r="1" transform="rotate(-90 75 13)" fill="#0182C4"/>
<circle cx="80" cy="13" r="1" transform="rotate(-90 80 13)" fill="#0182C4"/>
<circle cx="85" cy="13" r="1" transform="rotate(-90 85 13)" fill="#0182C4"/>
<circle cx="90" cy="13" r="1" transform="rotate(-90 90 13)" fill="#0182C4"/>
<circle cx="95" cy="13" r="1" transform="rotate(-90 95 13)" fill="#0182C4"/>
<circle cx="50" cy="9" r="1" transform="rotate(-90 50 9)" fill="#0182C4"/>
<circle cx="55" cy="9" r="1" transform="rotate(-90 55 9)" fill="#0182C4"/>
<circle cx="60" cy="9" r="1" transform="rotate(-90 60 9)" fill="#0182C4"/>
<circle cx="65" cy="9" r="1" transform="rotate(-90 65 9)" fill="#0182C4"/>
<circle cx="70" cy="9" r="1" transform="rotate(-90 70 9)" fill="#0182C4"/>
<circle cx="75" cy="9" r="1" transform="rotate(-90 75 9)" fill="#0182C4"/>
<circle cx="80" cy="9" r="1" transform="rotate(-90 80 9)" fill="#0182C4"/>
<circle cx="85" cy="9" r="1" transform="rotate(-90 85 9)" fill="#0182C4"/>
<circle cx="90" cy="9" r="1" transform="rotate(-90 90 9)" fill="#0182C4"/>
<circle cx="95" cy="9" r="1" transform="rotate(-90 95 9)" fill="#0182C4"/>
<circle cx="50" cy="5" r="1" transform="rotate(-90 50 5)" fill="#0182C4"/>
<circle cx="55" cy="5" r="1" transform="rotate(-90 55 5)" fill="#0182C4"/>
<circle cx="60" cy="5" r="1" transform="rotate(-90 60 5)" fill="#0182C4"/>
<circle cx="65" cy="5" r="1" transform="rotate(-90 65 5)" fill="#0182C4"/>
<circle cx="70" cy="5" r="1" transform="rotate(-90 70 5)" fill="#0182C4"/>
<circle cx="75" cy="5" r="1" transform="rotate(-90 75 5)" fill="#0182C4"/>
<circle cx="80" cy="5" r="1" transform="rotate(-90 80 5)" fill="#0182C4"/>
<circle cx="85" cy="5" r="1" transform="rotate(-90 85 5)" fill="#0182C4"/>
<circle cx="90" cy="5" r="1" transform="rotate(-90 90 5)" fill="#0182C4"/>
<circle cx="95" cy="5" r="1" transform="rotate(-90 95 5)" fill="#0182C4"/>
<circle cx="50" cy="1" r="1" transform="rotate(-90 50 1)" fill="#0182C4"/>
<circle cx="55" cy="1" r="1" transform="rotate(-90 55 1)" fill="#0182C4"/>
<circle cx="60" cy="1" r="1" transform="rotate(-90 60 1)" fill="#0182C4"/>
<circle cx="65" cy="1" r="1" transform="rotate(-90 65 1)" fill="#0182C4"/>
<circle cx="70" cy="1" r="1" transform="rotate(-90 70 1)" fill="#0182C4"/>
<circle cx="75" cy="1" r="1" transform="rotate(-90 75 1)" fill="#0182C4"/>
<circle cx="80" cy="1" r="1" transform="rotate(-90 80 1)" fill="#0182C4"/>
<circle cx="85" cy="1" r="1" transform="rotate(-90 85 1)" fill="#0182C4"/>
<circle cx="90" cy="1" r="1" transform="rotate(-90 90 1)" fill="#0182C4"/>
<circle cx="95" cy="1" r="1" transform="rotate(-90 95 1)" fill="#0182C4"/>
</svg>
