<svg width="75" height="75" viewBox="0 0 75 75" fill="none" xmlns="http://www.w3.org/2000/svg">
<circle cx="37.5" cy="37.5" r="37.5" fill="#0182C4" fill-opacity="0.08"/>
<g clip-path="url(#clip0_19_3362)">
<path d="M54.4732 38.4922C54.3203 38.1794 54.3203 37.8206 54.4732 37.5078L55.8905 34.6085C56.6796 32.9942 56.0544 31.0701 54.4671 30.2279L51.6164 28.7153C51.3088 28.5522 51.098 28.2619 51.0378 27.9191L50.4803 24.7404C50.1698 22.9705 48.5327 21.7813 46.7539 22.0329L43.5586 22.4849C43.2137 22.5336 42.8727 22.4227 42.6225 22.1807L40.3031 19.9369C39.0116 18.6876 36.9884 18.6875 35.697 19.9369L33.3775 22.1809C33.1273 22.423 32.7862 22.5337 32.4414 22.4852L29.2461 22.0332C27.4667 21.7813 25.8302 22.9708 25.5198 24.7406L24.9622 27.9191C24.902 28.262 24.6912 28.5523 24.3837 28.7155L21.533 30.2281C19.9457 31.0701 19.3205 32.9944 20.1096 34.6087L21.5268 37.508C21.6797 37.8208 21.6797 38.1796 21.5268 38.4923L20.1095 41.3916C19.3204 43.0059 19.9457 44.93 21.5329 45.7722L24.3836 47.2848C24.6912 47.4479 24.902 47.7382 24.9622 48.0811L25.5198 51.2598C25.8024 52.8709 27.1839 54.0008 28.7716 54.0006C28.928 54.0006 29.0867 53.9896 29.2462 53.9671L32.4415 53.5151C32.7861 53.4662 33.1274 53.5773 33.3776 53.8193L35.697 56.0631C36.3429 56.6879 37.1713 57.0002 38 57.0001C38.8285 57 39.6575 56.6877 40.303 56.0631L42.6225 53.8193C42.8727 53.5773 43.2138 53.4667 43.5586 53.5151L46.7539 53.9671C48.5335 54.2188 50.1698 53.0295 50.4803 51.2597L51.0379 48.0811C51.0981 47.7382 51.3089 47.448 51.6164 47.2848L54.4671 45.7722C56.0544 44.9301 56.6796 43.0059 55.8905 41.3915L54.4732 38.4922ZM33.6166 28.1375C35.8322 28.1375 37.6347 29.94 37.6347 32.1556C37.6347 34.3712 35.8322 36.1737 33.6166 36.1737C31.401 36.1737 29.5985 34.3712 29.5985 32.1556C29.5985 29.94 31.401 28.1375 33.6166 28.1375ZM31.5426 46.007C31.3287 46.221 31.0482 46.328 30.7678 46.328C30.4874 46.328 30.2069 46.2211 29.993 46.007C29.565 45.5791 29.565 44.8852 29.993 44.4573L44.4573 29.9929C44.8852 29.565 45.5791 29.565 46.0071 29.9929C46.435 30.4209 46.435 31.1147 46.0071 31.5427L31.5426 46.007ZM42.3833 47.8626C40.1677 47.8626 38.3652 46.0601 38.3652 43.8445C38.3652 41.629 40.1677 39.8264 42.3833 39.8264C44.5988 39.8264 46.4014 41.629 46.4014 43.8445C46.4014 46.0601 44.5988 47.8626 42.3833 47.8626Z" fill="#0182C4"/>
<path d="M42.3833 42.0181C41.3763 42.0181 40.5569 42.8374 40.5569 43.8445C40.5569 44.8516 41.3762 45.6709 42.3833 45.6709C43.3904 45.6709 44.2097 44.8516 44.2097 43.8445C44.2097 42.8374 43.3904 42.0181 42.3833 42.0181Z" fill="#0182C4"/>
<path d="M33.6166 30.3291C32.6096 30.3291 31.7903 31.1484 31.7903 32.1555C31.7903 33.1625 32.6096 33.9819 33.6166 33.9819C34.6237 33.9819 35.4431 33.1626 35.4431 32.1555C35.443 31.1485 34.6237 30.3291 33.6166 30.3291Z" fill="#0182C4"/>
</g>
<defs>
<clipPath id="clip0_19_3362">
<rect width="38" height="38" fill="white" transform="translate(19 19)"/>
</clipPath>
</defs>
</svg>
