<svg width="75" height="75" viewBox="0 0 75 75" fill="none" xmlns="http://www.w3.org/2000/svg">
<path fill-rule="evenodd" clip-rule="evenodd" d="M34.9003 17.6661C30.8156 17.6661 27.4932 20.9894 27.4932 25.0733V27.0249C29.4781 26.283 32.64 25.5327 36.107 25.573H37.1972C40.6393 25.5289 43.802 26.2819 45.795 27.025V25.0732C45.795 20.9894 42.4718 17.6661 38.3871 17.6661H34.9003Z" fill="#0182C4"/>
<path fill-rule="evenodd" clip-rule="evenodd" d="M36.1004 26.5391C32.6002 26.4955 29.4555 27.2804 27.6057 28.0116H28.2388H45.0588H45.6811C43.8211 27.2795 40.6765 26.498 37.2031 26.5391L36.1004 26.5391Z" fill="#0182C4"/>
<path fill-rule="evenodd" clip-rule="evenodd" d="M28.7217 28.9777L28.7217 31.0833C28.7217 34.9684 31.1569 38.5206 34.782 39.9219C35.9863 40.3898 37.3111 40.3898 38.5145 39.9227C39.1737 39.6678 39.7934 39.3415 40.3664 38.9554C40.3798 38.9454 40.3937 38.9361 40.4081 38.9275C42.9629 37.1862 44.5757 34.245 44.5757 31.0833L44.5758 28.9777H28.7217Z" fill="#0182C4"/>
<path fill-rule="evenodd" clip-rule="evenodd" d="M52.3544 47.7634C52.2312 47.7634 52.1079 47.7164 52.0139 47.6233L50.5775 46.1961C50.388 46.0083 50.3871 45.7022 50.5749 45.5127C50.7628 45.324 51.0688 45.3232 51.2584 45.511L52.3528 46.5986L55.3197 43.6317C55.5083 43.4431 55.8143 43.4431 56.003 43.6318C56.1917 43.8204 56.1917 44.1257 56.003 44.3143L52.6957 47.6217C52.601 47.7164 52.4777 47.7634 52.3544 47.7634ZM49.1326 45.6267C49.1326 47.9185 50.9976 49.7835 53.2894 49.7835C55.5821 49.7835 57.4462 47.9185 57.4462 45.6267C57.4463 43.3349 55.5821 41.4699 53.2895 41.4699C50.9976 41.4699 49.1326 43.3349 49.1326 45.6267Z" fill="#0182C4"/>
<path fill-rule="evenodd" clip-rule="evenodd" d="M46.6001 44.942L46.6002 51.2291H47.4119C48.5221 51.2291 49.4261 52.1322 49.4261 53.2433L49.4261 57.3339H54.7453C54.9029 57.3339 55.037 57.1997 55.037 57.0421L55.037 53.9612C55.037 52.8125 54.8133 51.6949 54.3721 50.6339C54.0229 50.7093 53.6608 50.7494 53.2895 50.7494C50.4652 50.7494 48.1665 48.4509 48.1665 45.6266C48.1665 45.5623 48.1682 45.4983 48.1705 45.4346L46.6001 44.942Z" fill="#0182C4"/>
<path fill-rule="evenodd" clip-rule="evenodd" d="M43.0925 52.1951H30.1961V52.7703C30.1961 53.7405 29.407 54.5297 28.4368 54.5297C27.4725 54.5297 26.6875 53.7405 26.6875 52.7703V52.1951H25.8859C25.3081 52.1951 24.8376 52.6655 24.8376 53.2433V57.3338H48.4602L48.4602 53.2433C48.4602 52.6655 47.9898 52.1951 47.412 52.1951H46.6003V52.7703C46.6003 53.7405 45.8154 54.5288 44.8511 54.5288C43.8817 54.5288 43.0925 53.7405 43.0925 52.7703V52.1951Z" fill="#0182C4"/>
<path fill-rule="evenodd" clip-rule="evenodd" d="M44.0586 44.1478L44.0587 52.7705C44.0587 53.2073 44.4142 53.5629 44.851 53.5629C45.2829 53.5629 45.6343 53.2073 45.6343 52.7705V51.713V51.7122V51.7114L45.6343 44.6396L44.0586 44.1478Z" fill="#0182C4"/>
<path fill-rule="evenodd" clip-rule="evenodd" d="M30.196 43.8464V51.2292H43.0924L43.0925 43.8468L42.0491 43.5227C41.5626 45.0147 39.3647 46.1097 36.6488 46.1097C33.9314 46.1097 31.7325 45.0134 31.2478 43.52L30.196 43.8464Z" fill="#0182C4"/>
<path fill-rule="evenodd" clip-rule="evenodd" d="M34.4324 40.8225C33.977 40.6465 33.5375 40.4404 33.1159 40.2059V41.0061C33.1159 41.8308 32.7552 42.6003 32.1392 43.1179C32.3664 44.1343 34.1207 45.1437 36.6488 45.1437C39.1715 45.1436 40.9237 44.1386 41.1569 43.1245C40.5356 42.6069 40.1725 41.8343 40.1725 41.0061V40.2112C39.7535 40.4437 39.3167 40.6483 38.8643 40.8233C38.1498 41.1009 37.3993 41.2392 36.6488 41.2392C35.8984 41.2392 35.1478 41.1009 34.4324 40.8225Z" fill="#0182C4"/>
<path fill-rule="evenodd" clip-rule="evenodd" d="M27.6533 44.6403L27.6533 51.6137C27.6599 51.6455 27.6634 51.6784 27.6634 51.7122C27.6634 51.7459 27.6599 51.7788 27.6533 51.8106V52.7704C27.6533 53.2073 28.0047 53.5637 28.4366 53.5637C28.8744 53.5637 29.2299 53.2073 29.2299 52.7704V51.7122V44.1475L27.6533 44.6403Z" fill="#0182C4"/>
<path fill-rule="evenodd" clip-rule="evenodd" d="M24.3295 45.6811C20.6875 46.8166 18.2422 50.144 18.2422 53.9612L18.2422 57.0421C18.2422 57.1997 18.3755 57.3339 18.534 57.3339H23.8715L23.8716 53.2433C23.8716 52.1322 24.7755 51.2291 25.8858 51.2291H26.6875L26.6875 44.9426L24.3295 45.6811Z" fill="#0182C4"/>
<path fill-rule="evenodd" clip-rule="evenodd" d="M19.3002 40.6126C19.2311 40.7216 19.1393 40.815 19.0338 40.8893L17.5537 41.9234L19.0339 42.9592C19.1395 43.0319 19.2309 43.1253 19.3001 43.2343L19.9262 44.2009L20.5505 43.2343C20.6214 43.1253 20.713 43.0302 20.8185 42.9575L22.3092 41.9234L20.8186 40.891C20.7131 40.8167 20.6214 40.7233 20.5504 40.6126L19.9262 39.6459L19.3002 40.6126Z" fill="#0182C4"/>
<path fill-rule="evenodd" clip-rule="evenodd" d="M24.1034 36.0674L22.6128 37.0997L24.1034 38.1321C24.209 38.2064 24.3005 38.3015 24.3714 38.4105L24.9905 39.3685L25.5992 38.4157C25.6703 38.3033 25.7617 38.2082 25.8707 38.1321L27.3597 37.0997L25.8708 36.0673C25.7619 35.9913 25.6701 35.8961 25.5992 35.7837L24.9905 34.8309L24.3715 35.7889C24.3007 35.8996 24.2089 35.993 24.1034 36.0674Z" fill="#0182C4"/>
<circle cx="37.5" cy="37.5" r="37.5" fill="#0182C4" fill-opacity="0.08"/>
</svg>
