<svg width="17" height="17" viewBox="0 0 17 17" fill="none" xmlns="http://www.w3.org/2000/svg">
<path d="M0.0332031 7.44867V16.2584L5.69656 11.8535L0.0332031 7.44867Z" fill="#007CFB"/>
<path d="M14.8086 5.15678V7.86536L16.4811 6.5645L14.8086 5.15678Z" fill="#007CFB"/>
<path d="M8.82071 0.116982C8.63538 -0.0389735 8.36464 -0.0389735 8.1793 0.116982L6.85864 1.22852H10.1413L8.82071 0.116982Z" fill="#007CFB"/>
<path d="M2.19134 5.15678L0.518799 6.5645L2.19134 7.86536V5.15678Z" fill="#007CFB"/>
<path d="M6.67871 12.3516L0.702148 17H16.2979L10.3214 12.3516H6.67871Z" fill="#007CFB"/>
<path d="M11.3035 11.8535L16.9669 16.2584V7.44862L11.3035 11.8535Z" fill="#007CFB"/>
<path d="M8.37458 5.95546C7.9706 5.95546 7.55273 6.34825 7.55273 7.00554C7.55273 7.67379 7.96034 8.12269 8.34104 8.12269C8.74194 8.12269 9.07068 7.65363 9.09432 7.06388L9.09495 6.93867C9.07706 6.35682 8.7859 5.95546 8.37458 5.95546Z" fill="#007CFB"/>
<path d="M10.3213 11.3555L13.8125 8.64008V2.72266C13.8125 2.4476 13.5895 2.22461 13.3145 2.22461H3.68555C3.41049 2.22461 3.1875 2.4476 3.1875 2.72266V8.64012L6.67868 11.3555H10.3213ZM4.98904 7.9657C4.7512 7.06141 4.8708 6.10808 5.32585 5.28136C5.7807 4.45493 6.52192 3.84359 7.413 3.55994C8.35308 3.26061 9.35126 3.3488 10.2235 3.80823C11.096 4.2677 11.7333 5.04053 12.0182 5.9844C12.0197 5.98951 12.0212 5.99469 12.0226 5.99987C12.2119 6.70909 12.1558 7.3786 11.8408 8.17066C11.6279 8.70603 11.1058 9.27812 10.2792 9.27812C9.97933 9.27812 9.69176 9.15513 9.4695 8.93177C9.4169 8.87891 9.36952 8.82134 9.32709 8.76035C9.04795 8.98739 8.70945 9.11874 8.34096 9.11874C7.85958 9.11874 7.39155 8.88506 7.05689 8.47759C6.73422 8.08473 6.55655 7.56195 6.55655 7.00549C6.55655 6.44655 6.74561 5.92935 7.08893 5.54921C7.42747 5.17434 7.89607 4.95932 8.37449 4.95932C8.63763 4.95932 8.88768 5.02204 9.11236 5.14021C9.15593 4.90935 9.3583 4.73493 9.60131 4.73493H9.60384C9.87889 4.73629 10.1008 4.96038 10.0994 5.23544L10.0857 8.00242C10.0853 8.08739 10.1189 8.17212 10.1756 8.2291C10.1952 8.24885 10.2348 8.28196 10.2792 8.28196C10.6811 8.28196 10.8579 7.94664 10.9152 7.8025C11.1478 7.21756 11.1919 6.757 11.0622 6.2644C10.8539 5.58155 10.3915 5.02244 9.75939 4.68954C9.12508 4.35545 8.399 4.2914 7.71514 4.50905C6.36713 4.93817 5.59283 6.34518 5.95239 7.71229C6.25095 8.84757 7.27716 9.66307 8.44794 9.69548C8.72286 9.70308 8.93964 9.93215 8.93201 10.2071C8.92453 10.4774 8.70307 10.6914 8.43442 10.6914C8.42974 10.6914 8.42509 10.6913 8.42038 10.6912C7.64857 10.6698 6.88669 10.3957 6.27506 9.91913C5.63962 9.42414 5.19496 8.74866 4.98904 7.9657Z" fill="#007CFB"/>
</svg>
