<svg width="19" height="16" viewBox="0 0 19 16" fill="none" xmlns="http://www.w3.org/2000/svg">
<path d="M9.46292 2.81529C12.6172 2.84624 14.5932 2.64998 14.8601 6.14615H18.7065C18.7065 0.730038 13.983 0 9.36279 0C4.74226 0 0.019043 0.730038 0.019043 6.14615H3.83563C4.13092 2.58335 6.33487 2.7847 9.46292 2.81529Z" fill="#007CFB"/>
<path d="M1.9265 7.88732C2.86335 7.88732 3.64291 7.94339 3.81622 7.02183C3.83952 6.89658 3.853 6.75458 3.853 6.59036H3.80857H0C0 7.96123 0.862573 7.88732 1.9265 7.88732Z" fill="#007CFB"/>
<path d="M14.8847 6.59036H14.8486C14.8486 6.75567 14.8628 6.89803 14.8894 7.02183C15.0722 7.87166 15.8507 7.81886 16.7842 7.81886C17.8533 7.81886 18.7198 7.88914 18.7198 6.59036H14.8847Z" fill="#007CFB"/>
<path d="M13.0057 5.65678V5.11208C13.0057 4.86849 12.725 4.8532 12.3784 4.8532H11.8122C11.4659 4.8532 11.1852 4.86849 11.1852 5.11208V5.58141V5.94552H7.17998V5.58141V5.11208C7.17998 4.86849 6.89925 4.8532 6.55298 4.8532H5.98643C5.64016 4.8532 5.35943 4.86849 5.35943 5.11208V5.65678V6.13231C4.44698 7.08045 1.46129 11.1166 1.35278 11.6052L1.35424 14.8658C1.35424 15.1669 1.59928 15.412 1.9004 15.412H16.4647C16.7659 15.412 17.0109 15.1669 17.0109 14.8658V11.5888C16.9035 11.1144 13.9185 7.08008 13.0057 6.13194V5.65678ZM6.98263 12.044C6.68952 12.044 6.45176 11.8066 6.45176 11.5131C6.45176 11.2196 6.68952 10.9822 6.98263 10.9822C7.27574 10.9822 7.5135 11.2196 7.5135 11.5131C7.5135 11.8066 7.27574 12.044 6.98263 12.044ZM6.98263 10.2234C6.68952 10.2234 6.45176 9.98603 6.45176 9.69256C6.45176 9.39909 6.68952 9.16169 6.98263 9.16169C7.27574 9.16169 7.5135 9.39909 7.5135 9.69256C7.5135 9.98603 7.27574 10.2234 6.98263 10.2234ZM6.98263 8.40325C6.68952 8.40325 6.45176 8.16585 6.45176 7.87238C6.45176 7.57928 6.68952 7.34151 6.98263 7.34151C7.27574 7.34151 7.5135 7.57928 7.5135 7.87238C7.5135 8.16585 7.27574 8.40325 6.98263 8.40325ZM9.16728 12.044C8.87417 12.044 8.63641 11.8066 8.63641 11.5131C8.63641 11.2196 8.87417 10.9822 9.16728 10.9822C9.46075 10.9822 9.69815 11.2196 9.69815 11.5131C9.69815 11.8066 9.46075 12.044 9.16728 12.044ZM9.16728 10.2234C8.87417 10.2234 8.63641 9.98603 8.63641 9.69256C8.63641 9.39909 8.87417 9.16169 9.16728 9.16169C9.46075 9.16169 9.69815 9.39909 9.69815 9.69256C9.69815 9.98603 9.46075 10.2234 9.16728 10.2234ZM9.16728 8.40325C8.87417 8.40325 8.63641 8.16585 8.63641 7.87238C8.63641 7.57928 8.87417 7.34151 9.16728 7.34151C9.46075 7.34151 9.69815 7.57928 9.69815 7.87238C9.69815 8.16585 9.46075 8.40325 9.16728 8.40325ZM11.3519 12.044C11.0585 12.044 10.8211 11.8066 10.8211 11.5131C10.8211 11.2196 11.0585 10.9822 11.3519 10.9822C11.6454 10.9822 11.8828 11.2196 11.8828 11.5131C11.8828 11.8066 11.6454 12.044 11.3519 12.044ZM11.3519 10.2234C11.0585 10.2234 10.8211 9.98603 10.8211 9.69256C10.8211 9.39909 11.0585 9.16169 11.3519 9.16169C11.6454 9.16169 11.8828 9.39909 11.8828 9.69256C11.8828 9.98603 11.6454 10.2234 11.3519 10.2234ZM11.3519 8.40325C11.0585 8.40325 10.8211 8.16585 10.8211 7.87238C10.8211 7.57928 11.0585 7.34151 11.3519 7.34151C11.6454 7.34151 11.8828 7.57928 11.8828 7.87238C11.8828 8.16585 11.6454 8.40325 11.3519 8.40325Z" fill="#007CFB"/>
</svg>
