<svg width="75" height="75" viewBox="0 0 75 75" fill="none" xmlns="http://www.w3.org/2000/svg">
<path d="M54.8333 38.4167C54.8333 28.7979 47.0354 21 37.4167 21C27.7979 21 20 28.7979 20 38.4167C20 41.6229 20.8629 44.6312 22.375 47.2042V45.5417C22.375 44.655 22.6679 43.8396 23.1508 43.1825C22.6442 41.6863 22.375 40.0792 22.375 38.4167C22.375 30.1121 29.1121 23.375 37.4167 23.375C45.7213 23.375 52.4583 30.1121 52.4583 38.4167C52.4583 40.0792 52.1892 41.6863 51.6825 43.1825C52.1654 43.8396 52.4583 44.655 52.4583 45.5417V47.2042C53.9704 44.6312 54.8333 41.6229 54.8333 38.4167Z" fill="#0182C4"/>
<path d="M48.4999 38.4167C48.4999 37.9813 48.8561 37.625 49.2916 37.625H50.8353C50.7245 35.7488 50.2257 33.9913 49.4261 32.4L48.7849 32.7721C48.4049 32.9858 47.922 32.8592 47.7003 32.4792C47.4786 32.0992 47.6132 31.6163 47.9932 31.3946L48.6345 31.0225C47.6291 29.5025 46.3307 28.2042 44.8107 27.1988L44.4386 27.84C44.217 28.22 43.7341 28.3546 43.3541 28.1329C42.9741 27.9113 42.8474 27.4283 43.0611 27.0483L43.4332 26.4071C41.842 25.6075 40.0845 25.1088 38.2082 24.9979V26.5417C38.2082 26.9771 37.852 27.3333 37.4166 27.3333C36.9811 27.3333 36.6249 26.9771 36.6249 26.5417V24.9979C34.7486 25.1088 32.9911 25.6075 31.3999 26.4071L31.772 27.0483C31.9857 27.4283 31.8591 27.9113 31.4791 28.1329C31.0991 28.3546 30.6161 28.22 30.3945 27.84L30.0224 27.1988C28.5024 28.2042 27.2041 29.5025 26.1986 31.0225L26.8399 31.3946C27.2199 31.6163 27.3545 32.0992 27.1328 32.4792C26.9111 32.8592 26.4282 32.9858 26.0482 32.7721L25.407 32.4C24.6074 33.9913 24.1086 35.7488 23.9978 37.625H25.5416C25.977 37.625 26.3332 37.9813 26.3332 38.4167C26.3332 38.8521 25.977 39.2083 25.5416 39.2083H23.9978C24.0532 40.19 24.2195 41.1321 24.4728 42.0425C25.027 41.7496 25.6603 41.5833 26.3332 41.5833H48.4999C49.1728 41.5833 49.8061 41.7496 50.3603 42.0425C50.6136 41.1321 50.7799 40.19 50.8353 39.2083H49.2916C48.8561 39.2083 48.4999 38.8521 48.4999 38.4167ZM37.4166 40C36.8307 40 36.3241 39.6833 36.0549 39.2083H31.0832C30.6478 39.2083 30.2916 38.8521 30.2916 38.4167C30.2916 37.9813 30.6478 37.625 31.0832 37.625H36.0549C36.1895 37.3875 36.3874 37.1896 36.6249 37.055V30.5C36.6249 30.0646 36.9811 29.7083 37.4166 29.7083C37.852 29.7083 38.2082 30.0646 38.2082 30.5V37.055C38.6832 37.3242 38.9999 37.8308 38.9999 38.4167C38.9999 39.2875 38.2874 40 37.4166 40Z" fill="#0182C4"/>
<circle cx="37.5" cy="37.5" r="37.5" fill="#0182C4" fill-opacity="0.08"/>
<path d="M48.4999 43.1667H26.3333C25.0215 43.1667 23.9583 44.2299 23.9583 45.5417V53.4584C23.9583 54.7701 25.0215 55.8334 26.3333 55.8334H48.4999C49.8117 55.8334 50.8749 54.7701 50.8749 53.4584V45.5417C50.8749 44.2299 49.8117 43.1667 48.4999 43.1667ZM31.0833 48.7084C31.0833 49.5816 30.3731 50.2917 29.4999 50.2917H27.9166V51.875H30.2916C30.7286 51.875 31.0833 52.2297 31.0833 52.6667C31.0833 53.1037 30.7286 53.4584 30.2916 53.4584H27.9166C27.0434 53.4584 26.3333 52.7482 26.3333 51.875V50.2917C26.3333 49.4185 27.0434 48.7084 27.9166 48.7084H29.4999V47.125H27.1249C26.6879 47.125 26.3333 46.7704 26.3333 46.3334C26.3333 45.8964 26.6879 45.5417 27.1249 45.5417H29.4999C30.3731 45.5417 31.0833 46.2518 31.0833 47.125V48.7084ZM37.4166 52.6667C37.4166 53.1037 37.0619 53.4584 36.6249 53.4584C36.1879 53.4584 35.8333 53.1037 35.8333 52.6667V50.2917H34.2499C33.3767 50.2917 32.6666 49.5816 32.6666 48.7084V46.3334C32.6666 45.8964 33.0213 45.5417 33.4583 45.5417C33.8953 45.5417 34.2499 45.8964 34.2499 46.3334V48.7084H35.8333V46.3334C35.8333 45.8964 36.1879 45.5417 36.6249 45.5417C37.0619 45.5417 37.4166 45.8964 37.4166 46.3334V52.6667ZM40.5674 53.6135C40.4922 53.9896 40.1613 54.25 39.7924 54.25C39.7409 54.25 39.6887 54.2453 39.6364 54.2342C39.2073 54.1487 38.9295 53.7315 39.0158 53.3024L40.5991 45.3857C40.6838 44.9574 41.1002 44.6788 41.5309 44.7651C41.96 44.8506 42.2378 45.2678 42.1515 45.6969L40.5682 53.6135H40.5674ZM48.0479 47.6808L46.0743 52.9446C45.9547 53.262 45.6531 53.4584 45.3325 53.4584C45.2398 53.4584 45.1464 53.4417 45.0546 53.4077C44.6453 53.2541 44.4379 52.7973 44.5915 52.388L46.5651 47.1242H44.5408C44.1038 47.1242 43.7491 46.7696 43.7491 46.3326C43.7491 45.8956 44.1038 45.5409 44.5408 45.5409H46.5651C47.0844 45.5409 47.5705 45.7958 47.8666 46.2217C48.1627 46.6484 48.23 47.1947 48.0479 47.6808Z" fill="#0182C4"/>
</svg>
